<svg width="85" height="26" viewBox="0 0 85 26" fill="none" xmlns="http://www.w3.org/2000/svg">
<path d="M37.1735 22.9414H41.1773L41.1621 22.8501L40.5836 22.8044C40.3857 22.8044 40.2334 22.7892 40.1116 22.7739C39.9899 22.7587 39.9137 22.7435 39.8528 22.7131C39.792 22.6978 39.7463 22.6826 39.7463 22.6674C39.7311 22.6522 39.7311 22.6217 39.7311 22.5913L41.6492 13.5637H43.0194C43.537 13.6245 43.9176 13.7616 44.1307 14.0051C44.3438 14.2487 44.5113 14.7511 44.6331 15.5123L44.6635 15.695H44.7244L44.9528 13.4266H37.4627L36.7624 15.695H36.8386L36.9604 15.4971C37.3409 14.8729 37.6911 14.401 37.9956 14.0965C38.3 13.792 38.6806 13.6245 39.1221 13.5637H40.6749L38.7872 22.5456C38.7567 22.6674 38.4979 22.7587 37.9956 22.7892L37.2192 22.8501L37.1735 22.9414ZM48.5367 23.1241C49.0087 23.1241 49.6176 22.3934 50.3636 20.9319L50.2722 20.8862L49.1305 22.6217L48.3997 22.5304L49.5719 19.6074C50.1048 18.283 50.3788 17.5066 50.3788 17.2934C50.3788 17.0499 50.2722 16.8367 50.0743 16.6236C49.8764 16.4105 49.6937 16.3039 49.511 16.3039C49.1457 16.3039 48.8108 16.4714 48.4911 16.8063C48.1866 17.1108 47.7756 17.6436 47.2427 18.42C46.7099 19.2116 46.238 19.988 45.8422 20.7644L45.7508 20.734C46.238 19.5465 46.9687 17.2325 47.9735 13.8225L48.2627 12.8481L45.9944 13.1069L45.9639 13.1983L47.1818 13.244C47.2884 13.244 47.3188 13.3657 47.258 13.5941L46.9383 14.7206C46.7251 15.4818 46.4359 16.4257 46.101 17.5522C45.7508 18.694 45.4463 19.6531 45.2028 20.4143L44.335 22.911L45.0962 22.9871L45.6442 21.5408C46.2684 20.2012 46.923 19.0746 47.5929 18.1612C48.2627 17.2478 48.7346 16.7911 48.9934 16.7911C49.1609 16.7911 49.2979 16.852 49.4197 16.9433C49.5415 17.0499 49.6024 17.1717 49.6024 17.3239C49.6024 17.4761 49.3284 18.2373 48.8108 19.6074C48.689 19.9424 48.5215 20.3534 48.3084 20.8558C48.0953 21.3581 47.943 21.754 47.8364 22.0432C47.7147 22.3325 47.669 22.4999 47.669 22.5456C47.669 22.6522 47.7756 22.7739 47.9887 22.911C48.2018 23.0632 48.3845 23.1241 48.5367 23.1241ZM52.6053 23.1241C53.4273 23.1241 54.2494 22.4086 55.0715 20.9623L54.9649 20.9167C54.5995 21.5256 54.2646 21.9519 53.9602 22.1954C53.6557 22.4543 53.3055 22.576 52.9402 22.576C52.5444 22.576 52.2399 22.4086 52.0268 22.0737C51.8136 21.7387 51.7071 21.2973 51.7071 20.7492C51.7071 20.2773 51.7832 19.7749 51.9506 19.2268C53.2446 19.0289 54.2037 18.7701 54.8279 18.4504C55.4368 18.146 55.7565 17.7349 55.7565 17.2478C55.7565 16.9737 55.6195 16.7454 55.3607 16.5627C55.0867 16.38 54.767 16.2887 54.3864 16.2887C53.8384 16.2887 53.2903 16.5323 52.7423 16.989C52.1942 17.4609 51.7527 18.0698 51.4178 18.8006C51.0677 19.5313 50.9002 20.2773 50.9002 21.0232C50.9002 21.617 51.0524 22.1193 51.3569 22.5151C51.6614 22.9262 52.0724 23.1241 52.6053 23.1241ZM52.042 19.0746L52.0115 19.0594C52.316 18.1612 52.6966 17.4761 53.1837 16.989C53.5796 16.6236 53.9145 16.4257 54.219 16.4257C54.4473 16.4257 54.63 16.5018 54.767 16.654C54.8888 16.8063 54.9649 16.989 54.9649 17.2021C54.9649 17.7197 54.7518 18.1155 54.3407 18.3895C53.9297 18.6636 53.1685 18.8919 52.042 19.0746ZM58.0241 22.9414H64.6921L65.6816 20.3077L65.5751 20.2925L65.4685 20.4904C65.027 21.2516 64.6008 21.8301 64.2049 22.2107C63.7939 22.5913 63.2611 22.7892 62.6065 22.7892L60.3381 22.7283L62.2259 13.8225C62.2411 13.7007 62.4999 13.6245 63.0175 13.5789L63.9309 13.518L63.9918 13.4266H60.0489L60.0641 13.518L60.4295 13.5637C60.8557 13.6245 61.0993 13.655 61.1754 13.6702C61.2516 13.7007 61.282 13.7311 61.282 13.7768L59.4247 22.5304C59.3943 22.6522 59.1355 22.7283 58.6331 22.7892L58.0698 22.8501L58.0241 22.9414ZM70.1778 23.1393C70.7716 23.1393 71.4414 22.4086 72.1721 20.9319L72.0808 20.8862L70.9695 22.6217L70.2844 22.5456L71.1978 19.6379L72.3396 16.3344L71.5784 16.2735L71.1369 17.7349H71.1217C71.1217 16.8215 70.8325 16.3648 70.254 16.3648C69.8277 16.3648 69.4167 16.5779 68.9904 17.0042C68.3662 17.6284 67.7877 18.3895 67.2701 19.2877C66.7525 20.1859 66.4937 21.008 66.4937 21.754C66.4937 22.165 66.6003 22.4999 66.8439 22.7435C67.0722 22.9871 67.3615 23.1089 67.6964 23.1089C68.0618 23.1089 68.4271 22.8957 68.8077 22.439C69.1883 21.9975 69.6907 21.2364 70.3149 20.1707H70.3453C69.919 21.2364 69.7211 21.891 69.7211 22.1346C69.7211 22.3934 69.7516 22.6217 69.8429 22.8348C69.9343 23.048 70.0408 23.1393 70.1778 23.1393ZM68.1074 22.4847C67.8943 22.4847 67.6964 22.4086 67.5441 22.2259C67.3919 22.0432 67.3158 21.7844 67.3158 21.419C67.3158 20.7644 67.4833 20.0032 67.8486 19.1355C68.1988 18.2678 68.5794 17.6284 69.0056 17.2021C69.2796 16.9281 69.5537 16.7911 69.8277 16.7911C70.1474 16.7911 70.4062 16.9433 70.6193 17.2173C70.8172 17.5066 70.9238 17.7958 70.9238 18.0851C70.9238 18.4504 70.802 18.8767 70.5584 19.3639C69.5232 21.4495 68.7011 22.4847 68.1074 22.4847ZM74.3225 23.1241C74.8096 23.1241 75.2816 22.9566 75.7078 22.5913C76.1341 22.2259 76.332 21.7996 76.332 21.2973C76.332 21.0385 76.2406 20.7644 76.0884 20.4752C75.9362 20.2012 75.586 19.7901 75.038 19.2573C74.3986 18.6483 74.0637 18.1307 74.0637 17.7349C74.0484 17.3696 74.155 17.0651 74.3986 16.8063C74.6269 16.5475 74.9466 16.4105 75.3425 16.4105C75.7383 16.4105 76.0884 16.6084 76.3777 16.989C76.0427 17.0955 75.8753 17.2934 75.8753 17.5827C75.8753 17.7349 75.9057 17.8567 75.9971 17.9481C76.0884 18.0394 76.195 18.0851 76.3472 18.0851C76.4842 18.0851 76.606 18.0394 76.7126 17.9176C76.8191 17.811 76.8648 17.6588 76.8648 17.4761C76.8496 17.1108 76.7126 16.8215 76.4538 16.6084C76.1798 16.3952 75.8144 16.2887 75.3425 16.2887C74.8857 16.2887 74.4443 16.4714 74.0484 16.8215C73.6374 17.1869 73.4395 17.5979 73.4547 18.0698C73.4547 18.3134 73.5156 18.5418 73.6374 18.7701C73.7592 19.0137 73.881 19.1964 74.0028 19.3334C74.1246 19.4856 74.3377 19.6835 74.6117 19.9576C74.6117 19.9728 74.6726 20.0337 74.7944 20.1555C74.9162 20.2773 74.9771 20.3534 75.0075 20.3838C75.038 20.4143 75.0989 20.4904 75.1902 20.597C75.2816 20.7035 75.3577 20.7797 75.3881 20.8405C75.4186 20.9014 75.4642 20.9928 75.5251 21.0841C75.586 21.1755 75.6165 21.2668 75.6469 21.3581C75.6621 21.4495 75.6774 21.5408 75.6774 21.6322C75.6774 21.9823 75.5708 22.302 75.3425 22.5913C75.1141 22.8805 74.7792 23.0175 74.3225 23.0175C73.8049 23.0175 73.3482 22.7892 72.9523 22.3172C73.0894 22.2716 73.2111 22.1954 73.3177 22.0737C73.4091 21.9671 73.4699 21.8453 73.4699 21.7083C73.4699 21.5713 73.4243 21.4495 73.3329 21.3581C73.2416 21.2668 73.1198 21.2059 72.9828 21.2059C72.8458 21.2059 72.724 21.2668 72.6326 21.3886C72.5261 21.5104 72.4804 21.6626 72.4804 21.8453C72.4804 22.2411 72.6479 22.5456 73.0132 22.7739C73.3634 23.0175 73.8049 23.1241 74.3225 23.1241ZM78.0862 23.1241C78.5581 23.1241 79.1518 22.3934 79.8825 20.9319L79.7912 20.8862L78.6951 22.6217L77.8882 22.5304L79.5781 16.9433H80.9178L81.0395 16.5323L79.7151 16.517L80.3545 14.4466H79.6085L78.9691 16.517L77.8882 16.5323L77.7512 16.9281L78.8321 16.9433L77.1575 22.4999C77.1118 22.6217 77.2184 22.7435 77.462 22.8957C77.7056 23.048 77.9187 23.1241 78.0862 23.1241ZM81.1504 23.1545C81.3331 23.1545 81.4853 23.0936 81.6071 22.9566C81.7289 22.8196 81.805 22.6522 81.805 22.4695C81.805 22.302 81.7441 22.1498 81.6223 22.0128C81.5005 21.891 81.3483 21.8149 81.1656 21.8149C80.9677 21.8149 80.8002 21.891 80.6632 22.0128C80.5262 22.1498 80.4653 22.302 80.4653 22.4695C80.4653 22.6522 80.5262 22.8196 80.6632 22.9566C80.785 23.0936 80.9525 23.1545 81.1504 23.1545Z" fill="#828282"/>
<path d="M4.93865 10H6.74011L8.04681 2.62923H12.3602L12.6393 1.11955H2.1984L1.9193 2.62923H6.24535L4.93865 10ZM12.2929 10H14.0943L14.4115 8.22391V8.24928C14.7794 6.16872 15.8831 4.81128 17.2532 4.81128C18.4838 4.81128 18.8644 5.54709 18.5346 7.46273L18.0779 10H19.8793L20.3741 7.24706C20.8562 4.48143 20.1838 3.47921 18.395 3.45384C16.4794 3.45384 15.3503 4.58293 14.7794 6.27021H14.6779L15.8451 1.11955H13.866L12.2929 10ZM24.9431 10.203C26.5415 10.203 27.29 10.0507 28.5967 9.58135L28.8504 8.13511C28.0766 8.43958 27.3661 8.83286 25.8184 8.83286C24.1438 8.83286 23.3826 8.41421 23.3573 7.37392H29.2564L29.4467 6.33364C29.7258 4.6083 28.4064 3.45384 26.1356 3.45384C23.8393 3.45384 22.0759 4.79859 21.7207 6.82841C21.3655 8.85823 22.6468 10.203 24.9431 10.203ZM23.4714 6.49857C23.8013 5.29336 24.5625 4.83665 25.8945 4.83665C27.2647 4.83665 27.8736 5.2553 27.7214 6.39707L23.4714 6.49857ZM34.0548 10H35.8563L36.5287 6.19409H42.7069L42.948 4.78591H36.7697L37.1503 2.62923H43.4427L43.7091 1.11955H35.6279L34.0548 10ZM45.846 2.5658C46.5438 2.5658 47.0258 2.23595 47.1527 1.5382C47.2669 0.853137 46.8863 0.523292 46.2012 0.523292C45.5288 0.523292 45.0341 0.853137 44.9199 1.5382C44.793 2.23595 45.1609 2.5658 45.846 2.5658ZM43.6513 10H45.4527L46.5691 3.65682H44.7677L43.6513 10ZM47.2845 10H49.086L49.4793 7.75452C49.8725 5.78813 51.0904 4.96352 53.7038 4.96352L53.9575 3.45384C51.5852 3.45384 50.4815 4.18965 49.7837 6.27021H49.6569L50.38 3.65682H48.4009L47.2845 10ZM56.8787 10.203C59.1115 10.203 60.7226 9.58135 60.9764 8.10973C61.4584 5.34411 55.572 6.76498 55.8003 5.5344C55.8764 5.09038 56.5615 4.87471 58.0585 4.87471C59.01 4.87471 60.1137 5.01426 60.9764 5.20456L61.2301 3.80906C60.1644 3.59339 58.8831 3.45384 58.1219 3.45384C55.8891 3.45384 54.2653 4.1389 54.0116 5.55978C53.5295 8.31271 59.4413 6.75229 59.213 8.10973C59.1115 8.64256 58.401 8.80748 56.8406 8.80748C55.7242 8.80748 54.8108 8.66793 53.8213 8.26197L53.5675 9.70821C54.5698 10.0127 55.9018 10.203 56.8787 10.203ZM63.8287 10.1269C64.5138 10.1269 65.0339 10.0507 65.5921 9.87314L65.757 8.92166C63.9048 9.02315 63.9429 8.84554 64.2093 7.33587L64.628 4.96352H66.4548L66.6958 3.65682H64.8563L65.1735 1.88073L63.5877 2.13446L63.3086 3.65682H62.1541L61.9131 4.96352H62.8265L62.3444 7.71646C62.0273 9.5306 62.1795 10.1269 63.8287 10.1269Z" fill="#828282"/>
</svg>
