<svg width="77" height="23" viewBox="0 0 77 23" fill="none" xmlns="http://www.w3.org/2000/svg">
<path d="M32.099 21.332H36.1028L36.0876 21.2407L35.5091 21.195C35.3112 21.195 35.159 21.1798 35.0372 21.1646C34.9154 21.1493 34.8393 21.1341 34.7784 21.1037C34.7175 21.0885 34.6718 21.0732 34.6718 21.058C34.6566 21.0428 34.6566 21.0123 34.6566 20.9819L36.5748 11.9543H37.9449C38.4625 12.0152 38.8431 12.1522 39.0562 12.3958C39.2694 12.6393 39.4368 13.1417 39.5586 13.9029L39.589 14.0856H39.6499L39.8783 11.8173H32.3883L31.688 14.0856H31.7641L31.8859 13.8877C32.2665 13.2635 32.6166 12.7916 32.9211 12.4871C33.2256 12.1826 33.6062 12.0152 34.0476 11.9543H35.6005L33.7127 20.9362C33.6823 21.058 33.4235 21.1493 32.9211 21.1798L32.1447 21.2407L32.099 21.332ZM43.4623 21.5147C43.9342 21.5147 44.5432 20.784 45.2891 19.3225L45.1978 19.2768L44.056 21.0123L43.3253 20.921L44.4975 17.9981C45.0303 16.6736 45.3043 15.8972 45.3043 15.6841C45.3043 15.4405 45.1978 15.2274 44.9999 15.0142C44.802 14.8011 44.6193 14.6945 44.4366 14.6945C44.0712 14.6945 43.7363 14.862 43.4166 15.1969C43.1121 15.5014 42.7011 16.0342 42.1683 16.8106C41.6354 17.6022 41.1635 18.3786 40.7677 19.1551L40.6763 19.1246C41.1635 17.9372 41.8942 15.6232 42.899 12.2131L43.1882 11.2388L40.9199 11.4976L40.8895 11.5889L42.1074 11.6346C42.2139 11.6346 42.2444 11.7564 42.1835 11.9847L41.8638 13.1113C41.6507 13.8725 41.3614 14.8163 41.0265 15.9429C40.6763 17.0846 40.3719 18.0437 40.1283 18.8049L39.2606 21.3016L40.0217 21.3777L40.5698 19.9315C41.194 18.5918 41.8486 17.4652 42.5184 16.5518C43.1882 15.6384 43.6602 15.1817 43.919 15.1817C44.0864 15.1817 44.2235 15.2426 44.3452 15.3339C44.467 15.4405 44.5279 15.5623 44.5279 15.7145C44.5279 15.8667 44.2539 16.6279 43.7363 17.9981C43.6145 18.333 43.447 18.744 43.2339 19.2464C43.0208 19.7488 42.8686 20.1446 42.762 20.4338C42.6402 20.7231 42.5945 20.8905 42.5945 20.9362C42.5945 21.0428 42.7011 21.1646 42.9142 21.3016C43.1274 21.4538 43.31 21.5147 43.4623 21.5147ZM47.5308 21.5147C48.3529 21.5147 49.1749 20.7992 49.997 19.353L49.8905 19.3073C49.5251 19.9162 49.1902 20.3425 48.8857 20.5861C48.5812 20.8449 48.2311 20.9667 47.8657 20.9667C47.4699 20.9667 47.1654 20.7992 46.9523 20.4643C46.7392 20.1294 46.6326 19.6879 46.6326 19.1398C46.6326 18.6679 46.7087 18.1655 46.8762 17.6175C48.1702 17.4196 49.1293 17.1608 49.7534 16.8411C50.3624 16.5366 50.6821 16.1256 50.6821 15.6384C50.6821 15.3644 50.5451 15.136 50.2863 14.9533C50.0122 14.7706 49.6925 14.6793 49.312 14.6793C48.7639 14.6793 48.2159 14.9229 47.6678 15.3796C47.1198 15.8515 46.6783 16.4605 46.3433 17.1912C45.9932 17.9219 45.8257 18.6679 45.8257 19.4139C45.8257 20.0076 45.978 20.51 46.2825 20.9058C46.5869 21.3168 46.998 21.5147 47.5308 21.5147ZM46.9675 17.4652L46.9371 17.45C47.2415 16.5518 47.6221 15.8667 48.1093 15.3796C48.5051 15.0142 48.84 14.8163 49.1445 14.8163C49.3728 14.8163 49.5555 14.8924 49.6925 15.0447C49.8143 15.1969 49.8905 15.3796 49.8905 15.5927C49.8905 16.1103 49.6773 16.5061 49.2663 16.7802C48.8552 17.0542 48.0941 17.2825 46.9675 17.4652ZM52.9497 21.332H59.6176L60.6072 18.6983L60.5006 18.6831L60.394 18.881C59.9526 19.6422 59.5263 20.2207 59.1305 20.6013C58.7194 20.9819 58.1866 21.1798 57.532 21.1798L55.2637 21.1189L57.1514 12.2131C57.1666 12.0913 57.4254 12.0152 57.943 11.9695L58.8565 11.9086L58.9173 11.8173H54.9744L54.9897 11.9086L55.355 11.9543C55.7813 12.0152 56.0249 12.0456 56.101 12.0608C56.1771 12.0913 56.2075 12.1217 56.2075 12.1674L54.3503 20.921C54.3198 21.0428 54.061 21.1189 53.5586 21.1798L52.9954 21.2407L52.9497 21.332ZM65.1034 21.5299C65.6971 21.5299 66.3669 20.7992 67.0977 19.3225L67.0063 19.2768L65.895 21.0123L65.2099 20.9362L66.1234 18.0285L67.2651 14.725L66.5039 14.6641L66.0625 16.1256H66.0472C66.0472 15.2121 65.758 14.7554 65.1795 14.7554C64.7532 14.7554 64.3422 14.9686 63.9159 15.3948C63.2918 16.019 62.7133 16.7802 62.1957 17.6784C61.6781 18.5766 61.4193 19.3986 61.4193 20.1446C61.4193 20.5556 61.5258 20.8905 61.7694 21.1341C61.9978 21.3777 62.287 21.4995 62.6219 21.4995C62.9873 21.4995 63.3527 21.2864 63.7332 20.8297C64.1138 20.3882 64.6162 19.627 65.2404 18.5613H65.2708C64.8446 19.627 64.6467 20.2816 64.6467 20.5252C64.6467 20.784 64.6771 21.0123 64.7685 21.2255C64.8598 21.4386 64.9664 21.5299 65.1034 21.5299ZM63.033 20.8753C62.8198 20.8753 62.6219 20.7992 62.4697 20.6165C62.3175 20.4338 62.2413 20.175 62.2413 19.8097C62.2413 19.1551 62.4088 18.3939 62.7742 17.5261C63.1243 16.6584 63.5049 16.019 63.9312 15.5927C64.2052 15.3187 64.4792 15.1817 64.7532 15.1817C65.0729 15.1817 65.3317 15.3339 65.5449 15.6079C65.7428 15.8972 65.8493 16.1864 65.8493 16.4757C65.8493 16.8411 65.7275 17.2673 65.484 17.7545C64.4488 19.8401 63.6267 20.8753 63.033 20.8753ZM69.248 21.5147C69.7352 21.5147 70.2071 21.3473 70.6334 20.9819C71.0596 20.6165 71.2575 20.1903 71.2575 19.6879C71.2575 19.4291 71.1662 19.1551 71.0139 18.8658C70.8617 18.5918 70.5116 18.1807 69.9635 17.6479C69.3241 17.039 68.9892 16.5214 68.9892 16.1256C68.974 15.7602 69.0805 15.4557 69.3241 15.1969C69.5525 14.9381 69.8722 14.8011 70.268 14.8011C70.6638 14.8011 71.0139 14.999 71.3032 15.3796C70.9683 15.4862 70.8008 15.6841 70.8008 15.9733C70.8008 16.1256 70.8313 16.2473 70.9226 16.3387C71.0139 16.43 71.1205 16.4757 71.2727 16.4757C71.4098 16.4757 71.5316 16.43 71.6381 16.3082C71.7447 16.2017 71.7904 16.0494 71.7904 15.8667C71.7751 15.5014 71.6381 15.2121 71.3793 14.999C71.1053 14.7859 70.7399 14.6793 70.268 14.6793C69.8113 14.6793 69.3698 14.862 68.974 15.2121C68.5629 15.5775 68.365 15.9885 68.3803 16.4605C68.3803 16.704 68.4412 16.9324 68.5629 17.1608C68.6847 17.4043 68.8065 17.587 68.9283 17.724C69.0501 17.8763 69.2632 18.0742 69.5373 18.3482C69.5373 18.3634 69.5982 18.4243 69.7199 18.5461C69.8417 18.6679 69.9026 18.744 69.9331 18.7745C69.9635 18.8049 70.0244 18.881 70.1158 18.9876C70.2071 19.0942 70.2832 19.1703 70.3137 19.2312C70.3441 19.2921 70.3898 19.3834 70.4507 19.4747C70.5116 19.5661 70.542 19.6574 70.5725 19.7488C70.5877 19.8401 70.6029 19.9315 70.6029 20.0228C70.6029 20.3729 70.4963 20.6926 70.268 20.9819C70.0396 21.2711 69.7047 21.4081 69.248 21.4081C68.7304 21.4081 68.2737 21.1798 67.8779 20.7079C68.0149 20.6622 68.1367 20.5861 68.2432 20.4643C68.3346 20.3577 68.3955 20.2359 68.3955 20.0989C68.3955 19.9619 68.3498 19.8401 68.2585 19.7488C68.1671 19.6574 68.0453 19.5965 67.9083 19.5965C67.7713 19.5965 67.6495 19.6574 67.5582 19.7792C67.4516 19.901 67.4059 20.0532 67.4059 20.2359C67.4059 20.6317 67.5734 20.9362 67.9388 21.1646C68.2889 21.4081 68.7304 21.5147 69.248 21.5147ZM73.0117 21.5147C73.4836 21.5147 74.0773 20.784 74.8081 19.3225L74.7167 19.2768L73.6206 21.0123L72.8138 20.921L74.5036 15.3339H75.8433L75.9651 14.9229L74.6406 14.9077L75.28 12.8372H74.5341L73.8947 14.9077L72.8138 14.9229L72.6768 15.3187L73.7577 15.3339L72.0831 20.8905C72.0374 21.0123 72.1439 21.1341 72.3875 21.2864C72.6311 21.4386 72.8442 21.5147 73.0117 21.5147ZM76.0759 21.5452C76.2586 21.5452 76.4108 21.4843 76.5326 21.3473C76.6544 21.2102 76.7305 21.0428 76.7305 20.8601C76.7305 20.6926 76.6696 20.5404 76.5479 20.4034C76.4261 20.2816 76.2738 20.2055 76.0911 20.2055C75.8932 20.2055 75.7258 20.2816 75.5888 20.4034C75.4518 20.5404 75.3909 20.6926 75.3909 20.8601C75.3909 21.0428 75.4518 21.2102 75.5888 21.3473C75.7106 21.4843 75.878 21.5452 76.0759 21.5452Z" fill="#828282"/>
<path d="M3.94546 10H5.74692L7.05361 2.62923H11.367L11.6461 1.11955H1.2052L0.926104 2.62923H5.25215L3.94546 10ZM11.2997 10H13.1011L13.4183 8.22391V8.24928C13.7862 6.16872 14.8899 4.81128 16.26 4.81128C17.4906 4.81128 17.8712 5.54709 17.5414 7.46273L17.0847 10H18.8861L19.3809 7.24706C19.863 4.48143 19.1906 3.47921 17.4018 3.45384C15.4862 3.45384 14.3571 4.58293 13.7862 6.27021H13.6847L14.8519 1.11955H12.8728L11.2997 10ZM23.9499 10.203C25.5483 10.203 26.2968 10.0507 27.6035 9.58135L27.8573 8.13511C27.0834 8.43958 26.373 8.83286 24.8252 8.83286C23.1506 8.83286 22.3894 8.41421 22.3641 7.37392H28.2632L28.4535 6.33364C28.7326 4.6083 27.4132 3.45384 25.1424 3.45384C22.8461 3.45384 21.0827 4.79859 20.7275 6.82841C20.3723 8.85823 21.6536 10.203 23.9499 10.203ZM22.4782 6.49857C22.8081 5.29336 23.5693 4.83665 24.9013 4.83665C26.2715 4.83665 26.8804 5.2553 26.7282 6.39707L22.4782 6.49857ZM33.0616 10H34.8631L35.5355 6.19409H41.7137L41.9548 4.78591H35.7765L36.1571 2.62923H42.4495L42.716 1.11955H34.6347L33.0616 10ZM44.8528 2.5658C45.5506 2.5658 46.0326 2.23595 46.1595 1.5382C46.2737 0.853137 45.8931 0.523292 45.208 0.523292C44.5356 0.523292 44.0409 0.853137 43.9267 1.5382C43.7998 2.23595 44.1677 2.5658 44.8528 2.5658ZM42.6581 10H44.4595L45.5759 3.65682H43.7745L42.6581 10ZM46.2913 10H48.0928L48.4861 7.75452C48.8793 5.78813 50.0972 4.96352 52.7106 4.96352L52.9643 3.45384C50.592 3.45384 49.4883 4.18965 48.7905 6.27021H48.6637L49.3868 3.65682H47.4077L46.2913 10ZM55.8855 10.203C58.1183 10.203 59.7294 9.58135 59.9832 8.10973C60.4653 5.34411 54.5788 6.76498 54.8071 5.5344C54.8833 5.09038 55.5683 4.87471 57.0653 4.87471C58.0168 4.87471 59.1205 5.01426 59.9832 5.20456L60.2369 3.80906C59.1712 3.59339 57.8899 3.45384 57.1287 3.45384C54.8959 3.45384 53.2721 4.1389 53.0184 5.55978C52.5363 8.31271 58.4481 6.75229 58.2198 8.10973C58.1183 8.64256 57.4078 8.80748 55.8474 8.80748C54.731 8.80748 53.8176 8.66793 52.8281 8.26197L52.5743 9.70821C53.5766 10.0127 54.9086 10.203 55.8855 10.203ZM62.8355 10.1269C63.5206 10.1269 64.0407 10.0507 64.5989 9.87314L64.7638 8.92166C62.9116 9.02315 62.9497 8.84554 63.2161 7.33587L63.6348 4.96352H65.4616L65.7026 3.65682H63.8631L64.1803 1.88073L62.5945 2.13446L62.3154 3.65682H61.1609L60.9199 4.96352H61.8333L61.3512 7.71646C61.0341 9.5306 61.1863 10.1269 62.8355 10.1269Z" fill="#828282"/>
</svg>
