<svg width="85" height="26" viewBox="0 0 85 26" fill="none" xmlns="http://www.w3.org/2000/svg">
<path d="M37.1731 22.9414H41.1769L41.1617 22.8501L40.5832 22.8044C40.3852 22.8044 40.233 22.7892 40.1112 22.7739C39.9894 22.7587 39.9133 22.7435 39.8524 22.7131C39.7915 22.6978 39.7459 22.6826 39.7459 22.6674C39.7306 22.6522 39.7306 22.6217 39.7306 22.5913L41.6488 13.5637H43.0189C43.5365 13.6245 43.9171 13.7616 44.1303 14.0051C44.3434 14.2487 44.5108 14.7511 44.6326 15.5123L44.6631 15.695H44.724L44.9523 13.4266H37.4623L36.762 15.695H36.8381L36.9599 15.4971C37.3405 14.8729 37.6907 14.401 37.9951 14.0965C38.2996 13.792 38.6802 13.6245 39.1217 13.5637H40.6745L38.7868 22.5456C38.7563 22.6674 38.4975 22.7587 37.9951 22.7892L37.2187 22.8501L37.1731 22.9414ZM48.5363 23.1241C49.0082 23.1241 49.6172 22.3934 50.3631 20.9319L50.2718 20.8862L49.13 22.6217L48.3993 22.5304L49.5715 19.6074C50.1043 18.283 50.3784 17.5066 50.3784 17.2934C50.3784 17.0499 50.2718 16.8367 50.0739 16.6236C49.876 16.4105 49.6933 16.3039 49.5106 16.3039C49.1453 16.3039 48.8103 16.4714 48.4906 16.8063C48.1862 17.1108 47.7751 17.6436 47.2423 18.42C46.7095 19.2116 46.2375 19.988 45.8417 20.7644L45.7504 20.734C46.2375 19.5465 46.9683 17.2325 47.973 13.8225L48.2623 12.8481L45.994 13.1069L45.9635 13.1983L47.1814 13.244C47.288 13.244 47.3184 13.3657 47.2575 13.5941L46.9378 14.7206C46.7247 15.4818 46.4354 16.4257 46.1005 17.5522C45.7504 18.694 45.4459 19.6531 45.2023 20.4143L44.3346 22.911L45.0958 22.9871L45.6438 21.5408C46.268 20.2012 46.9226 19.0746 47.5924 18.1612C48.2623 17.2478 48.7342 16.7911 48.993 16.7911C49.1605 16.7911 49.2975 16.852 49.4193 16.9433C49.5411 17.0499 49.602 17.1717 49.602 17.3239C49.602 17.4761 49.3279 18.2373 48.8103 19.6074C48.6885 19.9424 48.5211 20.3534 48.308 20.8558C48.0948 21.3581 47.9426 21.754 47.836 22.0432C47.7142 22.3325 47.6686 22.4999 47.6686 22.5456C47.6686 22.6522 47.7751 22.7739 47.9883 22.911C48.2014 23.0632 48.3841 23.1241 48.5363 23.1241ZM52.6048 23.1241C53.4269 23.1241 54.249 22.4086 55.0711 20.9623L54.9645 20.9167C54.5991 21.5256 54.2642 21.9519 53.9597 22.1954C53.6553 22.4543 53.3051 22.576 52.9397 22.576C52.5439 22.576 52.2395 22.4086 52.0263 22.0737C51.8132 21.7387 51.7066 21.2973 51.7066 20.7492C51.7066 20.2773 51.7827 19.7749 51.9502 19.2268C53.2442 19.0289 54.2033 18.7701 54.8275 18.4504C55.4364 18.146 55.7561 17.7349 55.7561 17.2478C55.7561 16.9737 55.6191 16.7454 55.3603 16.5627C55.0863 16.38 54.7666 16.2887 54.386 16.2887C53.8379 16.2887 53.2899 16.5323 52.7418 16.989C52.1938 17.4609 51.7523 18.0698 51.4174 18.8006C51.0672 19.5313 50.8998 20.2773 50.8998 21.0232C50.8998 21.617 51.052 22.1193 51.3565 22.5151C51.661 22.9262 52.072 23.1241 52.6048 23.1241ZM52.0415 19.0746L52.0111 19.0594C52.3156 18.1612 52.6962 17.4761 53.1833 16.989C53.5791 16.6236 53.9141 16.4257 54.2185 16.4257C54.4469 16.4257 54.6296 16.5018 54.7666 16.654C54.8884 16.8063 54.9645 16.989 54.9645 17.2021C54.9645 17.7197 54.7514 18.1155 54.3403 18.3895C53.9293 18.6636 53.1681 18.8919 52.0415 19.0746ZM58.0237 22.9414H64.6917L65.6812 20.3077L65.5746 20.2925L65.4681 20.4904C65.0266 21.2516 64.6003 21.8301 64.2045 22.2107C63.7935 22.5913 63.2606 22.7892 62.606 22.7892L60.3377 22.7283L62.2254 13.8225C62.2407 13.7007 62.4995 13.6245 63.0171 13.5789L63.9305 13.518L63.9914 13.4266H60.0485L60.0637 13.518L60.4291 13.5637C60.8553 13.6245 61.0989 13.655 61.175 13.6702C61.2511 13.7007 61.2816 13.7311 61.2816 13.7768L59.4243 22.5304C59.3938 22.6522 59.135 22.7283 58.6327 22.7892L58.0694 22.8501L58.0237 22.9414ZM70.1774 23.1393C70.7711 23.1393 71.441 22.4086 72.1717 20.9319L72.0804 20.8862L70.969 22.6217L70.284 22.5456L71.1974 19.6379L72.3392 16.3344L71.578 16.2735L71.1365 17.7349H71.1213C71.1213 16.8215 70.832 16.3648 70.2535 16.3648C69.8273 16.3648 69.4162 16.5779 68.99 17.0042C68.3658 17.6284 67.7873 18.3895 67.2697 19.2877C66.7521 20.1859 66.4933 21.008 66.4933 21.754C66.4933 22.165 66.5999 22.4999 66.8434 22.7435C67.0718 22.9871 67.361 23.1089 67.696 23.1089C68.0613 23.1089 68.4267 22.8957 68.8073 22.439C69.1879 21.9975 69.6903 21.2364 70.3144 20.1707H70.3449C69.9186 21.2364 69.7207 21.891 69.7207 22.1346C69.7207 22.3934 69.7511 22.6217 69.8425 22.8348C69.9338 23.048 70.0404 23.1393 70.1774 23.1393ZM68.107 22.4847C67.8939 22.4847 67.696 22.4086 67.5437 22.2259C67.3915 22.0432 67.3154 21.7844 67.3154 21.419C67.3154 20.7644 67.4828 20.0032 67.8482 19.1355C68.1983 18.2678 68.5789 17.6284 69.0052 17.2021C69.2792 16.9281 69.5532 16.7911 69.8273 16.7911C70.147 16.7911 70.4058 16.9433 70.6189 17.2173C70.8168 17.5066 70.9234 17.7958 70.9234 18.0851C70.9234 18.4504 70.8016 18.8767 70.558 19.3639C69.5228 21.4495 68.7007 22.4847 68.107 22.4847ZM74.322 23.1241C74.8092 23.1241 75.2811 22.9566 75.7074 22.5913C76.1337 22.2259 76.3316 21.7996 76.3316 21.2973C76.3316 21.0385 76.2402 20.7644 76.088 20.4752C75.9357 20.2012 75.5856 19.7901 75.0376 19.2573C74.3982 18.6483 74.0632 18.1307 74.0632 17.7349C74.048 17.3696 74.1546 17.0651 74.3982 16.8063C74.6265 16.5475 74.9462 16.4105 75.342 16.4105C75.7378 16.4105 76.088 16.6084 76.3772 16.989C76.0423 17.0955 75.8749 17.2934 75.8749 17.5827C75.8749 17.7349 75.9053 17.8567 75.9966 17.9481C76.088 18.0394 76.1945 18.0851 76.3468 18.0851C76.4838 18.0851 76.6056 18.0394 76.7122 17.9176C76.8187 17.811 76.8644 17.6588 76.8644 17.4761C76.8492 17.1108 76.7122 16.8215 76.4534 16.6084C76.1793 16.3952 75.814 16.2887 75.342 16.2887C74.8853 16.2887 74.4438 16.4714 74.048 16.8215C73.637 17.1869 73.4391 17.5979 73.4543 18.0698C73.4543 18.3134 73.5152 18.5418 73.637 18.7701C73.7588 19.0137 73.8806 19.1964 74.0023 19.3334C74.1241 19.4856 74.3373 19.6835 74.6113 19.9576C74.6113 19.9728 74.6722 20.0337 74.794 20.1555C74.9158 20.2773 74.9767 20.3534 75.0071 20.3838C75.0376 20.4143 75.0984 20.4904 75.1898 20.597C75.2811 20.7035 75.3572 20.7797 75.3877 20.8405C75.4181 20.9014 75.4638 20.9928 75.5247 21.0841C75.5856 21.1755 75.6161 21.2668 75.6465 21.3581C75.6617 21.4495 75.6769 21.5408 75.6769 21.6322C75.6769 21.9823 75.5704 22.302 75.342 22.5913C75.1137 22.8805 74.7788 23.0175 74.322 23.0175C73.8044 23.0175 73.3477 22.7892 72.9519 22.3172C73.0889 22.2716 73.2107 22.1954 73.3173 22.0737C73.4086 21.9671 73.4695 21.8453 73.4695 21.7083C73.4695 21.5713 73.4238 21.4495 73.3325 21.3581C73.2412 21.2668 73.1194 21.2059 72.9824 21.2059C72.8454 21.2059 72.7236 21.2668 72.6322 21.3886C72.5257 21.5104 72.48 21.6626 72.48 21.8453C72.48 22.2411 72.6474 22.5456 73.0128 22.7739C73.363 23.0175 73.8044 23.1241 74.322 23.1241ZM78.0857 23.1241C78.5577 23.1241 79.1514 22.3934 79.8821 20.9319L79.7908 20.8862L78.6947 22.6217L77.8878 22.5304L79.5776 16.9433H80.9173L81.0391 16.5323L79.7147 16.517L80.354 14.4466H79.6081L78.9687 16.517L77.8878 16.5323L77.7508 16.9281L78.8317 16.9433L77.1571 22.4999C77.1114 22.6217 77.218 22.7435 77.4616 22.8957C77.7051 23.048 77.9183 23.1241 78.0857 23.1241ZM81.15 23.1545C81.3326 23.1545 81.4849 23.0936 81.6067 22.9566C81.7285 22.8196 81.8046 22.6522 81.8046 22.4695C81.8046 22.302 81.7437 22.1498 81.6219 22.0128C81.5001 21.891 81.3479 21.8149 81.1652 21.8149C80.9673 21.8149 80.7998 21.891 80.6628 22.0128C80.5258 22.1498 80.4649 22.302 80.4649 22.4695C80.4649 22.6522 80.5258 22.8196 80.6628 22.9566C80.7846 23.0936 80.952 23.1545 81.15 23.1545Z" fill="white"/>
<path d="M4.93862 10H6.74008L8.04678 2.62923H12.3601L12.6392 1.11955H2.19837L1.91927 2.62923H6.24532L4.93862 10ZM12.2928 10H14.0943L14.4115 8.22391V8.24928C14.7794 6.16872 15.8831 4.81128 17.2532 4.81128C18.4838 4.81128 18.8644 5.54709 18.5345 7.46273L18.0778 10H19.8793L20.3741 7.24706C20.8561 4.48143 20.1838 3.47921 18.395 3.45384C16.4793 3.45384 15.3503 4.58293 14.7794 6.27021H14.6779L15.845 1.11955H13.8659L12.2928 10ZM24.943 10.203C26.5415 10.203 27.29 10.0507 28.5967 9.58135L28.8504 8.13511C28.0766 8.43958 27.3661 8.83286 25.8184 8.83286C24.1438 8.83286 23.3826 8.41421 23.3572 7.37392H29.2564L29.4467 6.33364C29.7258 4.6083 28.4064 3.45384 26.1355 3.45384C23.8393 3.45384 22.0759 4.79859 21.7207 6.82841C21.3655 8.85823 22.6468 10.203 24.943 10.203ZM23.4714 6.49857C23.8012 5.29336 24.5624 4.83665 25.8945 4.83665C27.2646 4.83665 27.8736 5.2553 27.7213 6.39707L23.4714 6.49857ZM34.0548 10H35.8563L36.5286 6.19409H42.7069L42.9479 4.78591H36.7697L37.1503 2.62923H43.4427L43.7091 1.11955H35.6279L34.0548 10ZM45.846 2.5658C46.5437 2.5658 47.0258 2.23595 47.1527 1.5382C47.2668 0.853137 46.8863 0.523292 46.2012 0.523292C45.5288 0.523292 45.034 0.853137 44.9199 1.5382C44.793 2.23595 45.1609 2.5658 45.846 2.5658ZM43.6512 10H45.4527L46.5691 3.65682H44.7676L43.6512 10ZM47.2845 10H49.0859L49.4792 7.75452C49.8725 5.78813 51.0904 4.96352 53.7038 4.96352L53.9575 3.45384C51.5852 3.45384 50.4814 4.18965 49.7837 6.27021H49.6568L50.38 3.65682H48.4009L47.2845 10ZM56.8786 10.203C59.1114 10.203 60.7226 9.58135 60.9763 8.10973C61.4584 5.34411 55.5719 6.76498 55.8003 5.5344C55.8764 5.09038 56.5615 4.87471 58.0585 4.87471C59.0099 4.87471 60.1137 5.01426 60.9763 5.20456L61.2301 3.80906C60.1644 3.59339 58.8831 3.45384 58.1219 3.45384C55.8891 3.45384 54.2653 4.1389 54.0115 5.55978C53.5294 8.31271 59.4413 6.75229 59.2129 8.10973C59.1114 8.64256 58.401 8.80748 56.8406 8.80748C55.7242 8.80748 54.8108 8.66793 53.8212 8.26197L53.5675 9.70821C54.5697 10.0127 55.9018 10.203 56.8786 10.203ZM63.8287 10.1269C64.5137 10.1269 65.0339 10.0507 65.5921 9.87314L65.757 8.92166C63.9048 9.02315 63.9429 8.84554 64.2093 7.33587L64.6279 4.96352H66.4548L66.6958 3.65682H64.8563L65.1734 1.88073L63.5876 2.13446L63.3085 3.65682H62.1541L61.913 4.96352H62.8265L62.3444 7.71646C62.0272 9.5306 62.1795 10.1269 63.8287 10.1269Z" fill="white"/>
</svg>
