<svg width="12" height="9" viewBox="0 0 12 9" fill="none" xmlns="http://www.w3.org/2000/svg">
<path d="M4.45005 4.08977C4.8763 4.27732 5.20878 4.55865 5.44748 4.93375C5.68618 5.30885 5.80553 5.75215 5.80553 6.26365C5.80553 6.9968 5.57535 7.59355 5.115 8.0539C4.65465 8.4972 4.06643 8.71885 3.35033 8.71885C2.63423 8.71885 2.03748 8.48867 1.56008 8.02832C1.09973 7.56797 0.86955 6.97975 0.86955 6.26365C0.86955 5.92265 0.912175 5.58165 0.997425 5.24065C1.08268 4.89965 1.27023 4.38815 1.56008 3.70615L3.04343 0.0233483H5.57535L4.45005 4.08977ZM10.4858 4.08977C10.912 4.27732 11.2445 4.55865 11.4832 4.93375C11.7219 5.30885 11.8412 5.75215 11.8412 6.26365C11.8412 6.9968 11.6111 7.59355 11.1507 8.0539C10.6904 8.4972 10.1021 8.71885 9.38603 8.71885C8.66993 8.71885 8.07318 8.48867 7.59578 8.02832C7.13543 7.56797 6.90525 6.97975 6.90525 6.26365C6.90525 5.92265 6.94788 5.58165 7.03313 5.24065C7.11838 4.89965 7.30593 4.38815 7.59578 3.70615L9.07913 0.0233483H11.6111L10.4858 4.08977Z" fill="#080808"/>
</svg>
