<svg width="11" height="10" viewBox="0 0 11 10" fill="none" xmlns="http://www.w3.org/2000/svg">
<path fill-rule="evenodd" clip-rule="evenodd" d="M0.741943 8.29202C1.6558 8.90252 2.74076 9.25807 3.90723 9.25807C7.70558 9.25807 9.78239 5.98149 9.78239 3.1403C9.78239 3.04715 9.78038 2.95507 9.77636 2.86299C10.1799 2.5596 10.5302 2.18117 10.8065 1.75004C10.4366 1.92143 10.0385 2.03639 9.62086 2.08749C10.0471 1.82296 10.3737 1.40035 10.5287 0.898959C10.1296 1.14486 9.68729 1.3237 9.21727 1.42004C8.84086 1.00275 8.30392 0.741943 7.71011 0.741943C6.5698 0.741943 5.64487 1.70373 5.64487 2.89067C5.64487 3.05993 5.66349 3.22333 5.69872 3.38088C3.98272 3.29146 2.46046 2.43559 1.44294 1.13475C1.2653 1.45304 1.16314 1.82136 1.16314 2.21577C1.16314 2.96146 1.52748 3.61986 2.08153 4.00522C1.74286 3.9951 1.42482 3.8977 1.14603 3.73643C1.14603 3.74548 1.14603 3.75452 1.14603 3.76357C1.14603 4.80467 1.8586 5.67438 2.80215 5.87185C2.62954 5.92135 2.44687 5.94689 2.25867 5.94689C2.12531 5.94689 1.99598 5.93412 1.87018 5.90857C2.13236 6.76338 2.89525 7.38506 3.79854 7.40156C3.09201 7.97852 2.20281 8.3213 1.2346 8.3213C1.06803 8.3213 0.903982 8.31278 0.741943 8.29202" fill="white"/>
</svg>
