<svg width="12" height="12" viewBox="0 0 12 12" fill="none" xmlns="http://www.w3.org/2000/svg">
<g clip-path="url(#clip0_2349_111)">
<path d="M11.5777 11.0354V11.0349H11.5804V7.05983C11.5804 5.11519 11.1618 3.61719 8.88834 3.61719C7.79544 3.61719 7.06202 4.21693 6.7626 4.78551H6.73099V3.79874H4.57544V11.0349H6.81996V7.45183C6.81996 6.50841 6.99879 5.59616 8.16712 5.59616C9.31828 5.59616 9.33544 6.6728 9.33544 7.51235V11.0354H11.5777Z" fill="white"/>
<path d="M0.920898 3.79883H3.16812V11.035H0.920898V3.79883Z" fill="white"/>
<path d="M2.04398 0.193604C1.32546 0.193604 0.742432 0.776636 0.742432 1.49515C0.742432 2.21367 1.32546 2.80889 2.04398 2.80889C2.7625 2.80889 3.34553 2.21367 3.34553 1.49515C3.34508 0.776636 2.76204 0.193604 2.04398 0.193604V0.193604Z" fill="white"/>
</g>
<defs>
<clipPath id="clip0_2349_111">
<rect width="10.8387" height="10.8387" fill="white" transform="translate(0.742432 0.193604)"/>
</clipPath>
</defs>
</svg>
